<svg data-v-0dd9719b="" version="1.0" xmlns="http://www.w3.org/2000/svg" xmlns:xlink="http://www.w3.org/1999/xlink" width="100%" height="100%" viewBox="0 0 340.000000 250.000000" preserveAspectRatio="xMidYMid meet" color-interpolation-filters="sRGB" style="margin: auto;"> <rect data-v-0dd9719b="" x="0" y="0" width="100%" height="100%" fill="#fff" fill-opacity="1" class="background"></rect> <rect data-v-0dd9719b="" x="0" y="0" width="100%" height="100%" fill="url(#watermark)" fill-opacity="1" class="watermarklayer"></rect> <g data-v-0dd9719b="" fill="#333" class="icon-text-wrapper icon-svg-group iconsvg" transform="translate(50.105003356933594,94.58637428283691)"><g class="iconsvg-imagesvg" transform="translate(0,0)"><g><rect fill="#333" fill-opacity="0" stroke-width="2" x="0" y="0" width="60" height="60.8272506082725" class="image-rect"></rect> <svg x="0" y="0" width="60" height="60.8272506082725" filtersec="colorsb5338441999" class="image-svg-svg primary" style="overflow: visible;"><svg xmlns="http://www.w3.org/2000/svg" viewBox="-0.01667151227593422 -0.0010506667895242572 98.62667083740234 99.98663330078125"><path d="M4.5 70.71a49.73 49.73 0 0 0 13.39 17.61L97.16 46.7z" fill="#2a3d8f"></path><path d="M19.15 89.34a50 50 0 0 0 79.46-27.68z" fill="#272660"></path><path d="M76.66 7.71A50 50 0 0 0 0 51.29l82.29-39.45a51 51 0 0 0-5.63-4.13z" fill="#29aae1"></path><path d="M88 25L.06 52.31A50.25 50.25 0 0 0 4.15 70z" fill="#1f76bb"></path></svg></svg> <!----></g></g> <g transform="translate(67,2.632375717163086)"><g data-gra="path-name" fill-rule="" class="tp-name iconsvg-namesvg" transform="translate(0,0)"><g transform="scale(1)"><g><path d="M16.7-27.6L16.7-35.16 24.26-35.16 24.26-27.6 40.96-27.6 40.96-23.91 20.92-23.91Q20.74-23.73 18.98-19.69L18.98-19.69Q18.11-17.93 8.96 2.11L8.96 2.11 7.38 5.45 0 5.45 0 5.45Q9.49-15.29 10.37-17.23L10.37-17.23Q13.36-23.55 13.54-23.91L13.54-23.91 0-23.91 0-27.6 16.7-27.6ZM20.74-22.68L20.74-22.68 28.13-22.68Q28.3-22.5 29.88-18.81L29.88-18.81Q37.97-1.41 38.5-0.18L38.5-0.18Q38.67 0.18 41.13 5.45L41.13 5.45 33.75 5.45Q33.57 5.27 31.99 1.76L31.99 1.76Q31.46 0.53 21.8-20.57L21.8-20.57Q21.8-20.57 20.74-22.68ZM60.82-32.52L61.7-35.16 69.08-35.16 69.08-35.16 68.2-32.52 84.38-32.52 84.38-28.83 66.97-28.83Q64.16-20.04 64.16-19.86L64.16-19.86 64.16-19.69Q64.16-18.98 65.04-18.63L65.04-18.63Q65.21-18.63 65.57-18.63L65.57-18.63 69.08-18.63 69.08-24.79 76.46-24.79 76.46-18.63 84.38-18.63 84.38-14.94 76.46-14.94 76.46-10.2 84.9-10.2 84.9-6.5 76.46-6.5 76.46-1.05Q76.46-1.05 76.46-1.05L76.46-1.05 69.08-1.05 69.08-6.5 55.37-6.5 55.37-10.2 69.08-10.2 69.08-14.94 59.41-14.94Q57.48-14.94 56.6-16L56.6-16Q56.07-16.7 56.07-17.75L56.07-17.75Q56.07-18.81 56.95-20.92L56.95-20.92 59.59-28.83 56.07-28.83 56.07-32.52 60.82-32.52ZM45.7-34.8L45.7-34.8 53.26-34.8Q53.96-31.64 55.02-27.95L55.02-27.95 47.64-27.95Q47.46-27.95 47.29-28.65L47.29-28.65Q47.29-28.83 45.7-34.8ZM43.95-22.15L43.95-25.84 51.33-25.84Q53.26-25.84 54.32-24.08L54.32-24.08Q54.84-23.38 54.84-22.68L54.84-22.68 54.84-22.68Q54.84-22.32 53.09-2.64L53.09-2.64Q52.91-1.58 52.91-1.23L52.91-1.23Q55.72 0.7 56.43 1.23L56.43 1.23Q57.48 1.93 59.24 1.93L59.24 1.93 84.9 1.93 84.9 5.45 57.83 5.45Q55.72 5.45 54.14 4.04L54.14 4.04 52.38 2.99 52.21 5.45 44.82 5.45Q44.82 5.45 47.29-19.86L47.29-19.86Q47.46-20.39 47.46-20.74L47.46-20.74Q47.46-21.45 46.58-21.97L46.58-21.97Q46.23-22.15 45.53-22.15L45.53-22.15 43.95-22.15ZM90.53-25.66L90.53-35.16 97.03-35.16 97.03-25.66 99.67-25.66 99.67-21.97 97.03-21.97 97.03 5.45 90.53 5.45 90.53-21.97 87.89-21.97 87.89-25.66 90.53-25.66ZM110.57-32.87L110.57-35.16 117.07-35.16 117.07-32.87 119.53-32.87 119.18-35.16 126.56-35.16 126.91-32.87 127.97-32.87 127.97-29.18 117.07-29.18 117.07-27.6 123.75-27.6Q125.51-27.6 126.56-25.84L126.56-25.84Q127.09-24.96 127.09-24.08L127.09-24.08 127.09-16.7Q127.09-11.6 125.86-10.02L125.86-10.02 119.53-10.02 119.53-10.2Q120.06-10.72 120.41-12.13L120.41-12.13Q120.59-12.48 120.59-12.66L120.59-12.66 117.07-12.66 117.07-10.02 110.57-10.02 110.57-12.66 106.88-12.66 106.88-10.02 100.55-10.02 100.55-27.6 106.88-27.6 106.88-21.45 110.57-21.45 110.57-23.91 108.11-23.91 108.11-27.6 110.57-27.6 110.57-29.18 99.84-29.18 99.84-32.7Q99.84-32.87 99.84-32.87L99.84-32.87 110.57-32.87ZM119.18-23.91L117.07-23.91 117.07-21.45 120.76-21.45 120.76-21.97Q120.76-23.38 119.88-23.73L119.88-23.73Q119.53-23.91 119.18-23.91L119.18-23.91ZM110.57-17.75L106.88-17.75 106.88-16.17 110.57-16.17 110.57-17.75ZM120.76-17.75L117.07-17.75 117.07-16.17 120.76-16.17Q120.76-16.52 120.76-16.7L120.76-16.7 120.76-17.75ZM117.77-7.73L117.77-9.14 124.63-9.14Q124.8-9.14 124.8-8.96L124.8-8.96 124.8-7.73 128.14-7.73 128.14-4.04 124.8-4.04 124.8-2.29Q124.8 1.23 123.93 3.16L123.93 3.16Q123.57 4.75 123.05 5.45L123.05 5.45 116.02 5.45 116.02 5.45Q117.77 2.11 117.77-1.41L117.77-1.41 117.77-4.04 99.32-4.04 99.32-7.73 117.77-7.73ZM101.43-2.46L101.43-2.46 108.28-2.46Q108.46-2.46 109.51 0.18L109.51 0.18Q109.51 0.18 111.09 3.87L111.09 3.87 104.06 3.87Q104.06 3.87 101.43-2.46ZM150.29-35.16L150.29-35.16 156.27-35.16Q155.39-30.76 155.39-30.59L155.39-30.59 160.14-30.59Q159.26-34.8 159.26-35.16L159.26-35.16 165.23-35.16Q165.41-35.16 165.59-33.75L165.59-33.75Q165.59-33.75 166.29-30.59L166.29-30.59 172.62-30.59 172.62-26.89 166.29-26.89 166.29-19.69 172.09-19.69 172.09-16.17 166.29-16.17 166.29-8.96 172.09-8.96 172.09-5.27 166.29-5.27 166.29 1.93 172.79 1.93 172.79 5.45 148.71 5.45 148.71-14.77 146.25-14.77 146.25 5.45 131.84 5.45 131.84-33.57 137.46-33.57 137.46 1.93 140.45 1.93 140.45-28.3Q140.45-29.53 139.22-29.88L139.22-29.88Q139.04-30.06 138.87-30.06L138.87-30.06 138.87-33.57 142.56-33.57Q144.49-33.57 145.72-31.99L145.72-31.99Q146.25-31.11 146.25-30.23L146.25-30.23 146.25-14.94 146.25-14.94Q147.3-20.39 150.29-35.16ZM160.14-26.89L154.86-26.89 154.86-19.69 160.14-19.69 160.14-26.89ZM160.14-16.17L154.86-16.17 154.86-8.96 160.14-8.96 160.14-16.17ZM160.14-5.27L154.86-5.27 154.86 1.93 160.14 1.93 160.14-5.27Z" transform="translate(0, 35.15999984741211)"></path></g> <!----> <!----> <!----> <!----> <!----> <!----> <!----></g></g> <g data-gra="path-slogan" fill-rule="" class="tp-slogan iconsvg-slogansvg" fill="#333" transform="translate(44.209999084472656,46.61000061035156)"><!----> <!----> <g transform="scale(1, 1)"><g transform="scale(1)"><path d="M4.41 0L0.94 0L0.94-8.58L4.45-8.58Q7.92-8.39 8.06-4.41L8.06-4.41Q7.88-0.09 4.41 0L4.41 0ZM4.27-7.64L2.11-7.64L2.11-0.98L4.36-0.98Q6.80-1.13 6.89-4.31L6.89-4.31Q6.84-7.55 4.27-7.64L4.27-7.64ZM15.19 0L14.34-2.48L10.88-2.48L9.98 0L8.81 0L12.05-8.58L13.36-8.58L16.45 0L15.19 0ZM12.61-7.31L11.25-3.52L13.92-3.52L12.66-7.31L12.61-7.31ZM17.48-8.58L18.66-8.58L18.66-1.03L23.02-1.03L23.02 0L17.48 0L17.48-8.58ZM24.33-8.58L25.50-8.58L25.50 0L24.33 0L24.33-8.58ZM33.14 0L32.30-2.48L28.83-2.48L27.94 0L26.77 0L30-8.58L31.31-8.58L34.41 0L33.14 0ZM30.56-7.31L29.20-3.52L31.88-3.52L30.61-7.31L30.56-7.31ZM36.84-8.58L41.16-1.64L41.16-8.58L42.28-8.58L42.28 0L40.97 0L36.61-6.94L36.56-6.94L36.56 0L35.44 0L35.44-8.58L36.84-8.58ZM50.63-7.64L48.56-7.64L48.56-4.97L50.63-4.97Q52.45-4.92 52.41-6.38L52.41-6.38Q52.41-7.64 50.63-7.64L50.63-7.64ZM51.09 0L47.39 0L47.39-8.58L51.19-8.58Q53.48-8.48 53.58-6.42L53.58-6.42Q53.58-5.16 52.45-4.64L52.45-4.64Q54.05-4.08 54.05-2.53L54.05-2.53Q53.91-0.09 51.09 0L51.09 0ZM50.81-3.98L48.56-3.98L48.56-0.98L51.05-0.98Q52.83-1.03 52.88-2.53L52.88-2.53Q52.88-3.98 50.81-3.98L50.81-3.98ZM62.16-4.27L62.16-4.27Q61.97-7.64 59.16-7.83L59.16-7.83Q56.30-7.69 56.16-4.27L56.16-4.27Q56.30-0.94 59.16-0.80L59.16-0.80Q61.97-0.98 62.16-4.27ZM63.33-4.27L63.33-4.27Q63.05 0 59.16 0.14L59.16 0.14Q55.22 0 54.94-4.27L54.94-4.27Q55.17-8.72 59.16-8.81L59.16-8.81Q63.05-8.67 63.33-4.27ZM69.47-7.13L69.42-7.13L67.45 0L66.23 0L63.98-8.58L65.20-8.58L66.84-1.59L66.89-1.59L68.81-8.58L70.08-8.58L72-1.59L72.05-1.59L73.64-8.58L74.91-8.58L72.66 0L71.44 0L69.47-7.13ZM77.30-1.03L82.45-1.03L82.45 0L76.13 0L76.13-8.58L82.36-8.58L82.36-7.59L77.30-7.59L77.30-4.92L81.98-4.92L81.98-3.89L77.30-3.89L77.30-1.03ZM84.14-8.58L85.31-8.58L85.31 0L84.14 0L84.14-8.58Z" transform="translate(-0.9375, 8.8125)"></path></g></g></g></g></g><defs v-gra="od"></defs></svg>